<?xml version="1.0" encoding="UTF-8"?>
<svg xmlns="http://www.w3.org/2000/svg" xmlns:xlink="http://www.w3.org/1999/xlink" width="274px" height="150px" viewBox="0 0 59 33" version="1.1">
<g id="surface1">
<path style=" stroke:none;fill-rule:nonzero;fill:rgb(13.72549%,12.156863%,12.54902%);fill-opacity:1;" d="M 12.558594 18.261719 C 12.460938 18.277344 12.371094 18.207031 12.359375 18.109375 L 10.660156 6.066406 C 10.648438 6.003906 10.675781 5.953125 10.695312 5.933594 C 10.726562 5.894531 10.765625 5.867188 10.816406 5.863281 L 45.398438 0.808594 C 45.398438 0.808594 45.414062 0.808594 45.421875 0.808594 C 45.511719 0.808594 45.585938 0.875 45.601562 0.96875 L 47.300781 13.007812 C 47.316406 13.109375 47.246094 13.199219 47.152344 13.214844 L 12.566406 18.257812 Z M 48.003906 12.910156 L 46.304688 0.867188 C 46.242188 0.421875 45.863281 0.0859375 45.421875 0.0859375 C 45.382812 0.0859375 45.339844 0.0859375 45.296875 0.0976562 L 10.703125 5.140625 C 10.472656 5.175781 10.261719 5.300781 10.117188 5.492188 C 9.972656 5.6875 9.914062 5.929688 9.945312 6.167969 L 11.648438 18.210938 C 11.710938 18.652344 12.089844 18.984375 12.53125 18.984375 C 12.574219 18.984375 12.613281 18.984375 12.660156 18.976562 L 47.246094 13.933594 C 47.738281 13.863281 48.074219 13.402344 48.003906 12.90625 Z M 48.003906 12.910156 "/>
<path style=" stroke:none;fill-rule:nonzero;fill:rgb(13.72549%,12.156863%,12.54902%);fill-opacity:1;" d="M 9.933594 15.453125 C 9.933594 15.453125 9.898438 15.488281 9.863281 15.492188 L 8.015625 15.761719 C 7.957031 15.769531 7.902344 15.726562 7.894531 15.667969 L 7.03125 9.578125 C 7.019531 9.519531 7.066406 9.460938 7.125 9.453125 L 8.984375 9.179688 C 9.039062 9.179688 9.085938 9.21875 9.089844 9.277344 L 9.953125 15.367188 C 9.953125 15.402344 9.941406 15.433594 9.933594 15.445312 Z M 9.796875 9.175781 C 9.734375 8.722656 9.3125 8.398438 8.863281 8.464844 L 7.019531 8.734375 C 6.570312 8.800781 6.257812 9.226562 6.324219 9.679688 L 7.183594 15.769531 C 7.238281 16.179688 7.59375 16.488281 7.996094 16.488281 C 8.039062 16.488281 8.078125 16.488281 8.117188 16.480469 L 9.960938 16.210938 C 10.179688 16.179688 10.371094 16.066406 10.503906 15.886719 C 10.636719 15.710938 10.695312 15.488281 10.660156 15.269531 L 9.796875 9.179688 Z M 9.796875 9.175781 "/>
<path style=" stroke:none;fill-rule:nonzero;fill:rgb(13.72549%,12.156863%,12.54902%);fill-opacity:1;" d="M 5.652344 14.921875 L 1.386719 15.542969 C 1.328125 15.554688 1.269531 15.507812 1.261719 15.453125 L 0.714844 11.585938 C 0.703125 11.523438 0.746094 11.46875 0.808594 11.457031 L 5.089844 10.835938 C 5.144531 10.835938 5.191406 10.875 5.199219 10.929688 L 5.75 14.792969 C 5.757812 14.855469 5.714844 14.910156 5.660156 14.921875 Z M 5.910156 10.824219 C 5.84375 10.378906 5.429688 10.050781 4.976562 10.117188 L 0.707031 10.738281 C 0.257812 10.804688 -0.0546875 11.230469 0.0117188 11.683594 L 0.558594 15.546875 C 0.617188 15.957031 0.96875 16.265625 1.371094 16.265625 C 1.410156 16.265625 1.449219 16.265625 1.492188 16.257812 L 5.757812 15.632812 C 6.207031 15.570312 6.523438 15.144531 6.457031 14.6875 Z M 5.910156 10.824219 "/>
<path style=" stroke:none;fill-rule:nonzero;fill:rgb(13.72549%,12.156863%,12.54902%);fill-opacity:1;" d="M 33.191406 30.042969 C 30.574219 30.042969 28.449219 27.882812 28.449219 25.226562 C 28.449219 22.574219 30.578125 20.414062 33.191406 20.414062 C 35.804688 20.414062 37.933594 22.574219 37.933594 25.226562 C 37.933594 27.882812 35.804688 30.042969 33.191406 30.042969 Z M 33.191406 19.683594 C 30.179688 19.683594 27.734375 22.171875 27.734375 25.226562 C 27.734375 28.285156 30.179688 30.765625 33.191406 30.765625 C 36.203125 30.765625 38.652344 28.28125 38.652344 25.226562 C 38.652344 22.175781 36.203125 19.683594 33.191406 19.683594 Z M 33.191406 19.683594 "/>
<path style=" stroke:none;fill-rule:nonzero;fill:rgb(13.72549%,12.156863%,12.54902%);fill-opacity:1;" d="M 50.070312 27.121094 C 50.070312 27.121094 50.070312 27.136719 50.070312 27.140625 L 39.648438 27.140625 C 39.839844 26.523438 39.933594 25.882812 39.933594 25.226562 C 39.933594 24.660156 39.863281 24.09375 39.714844 23.546875 L 50.066406 23.546875 C 50.066406 23.546875 50.066406 23.558594 50.066406 23.566406 C 49.941406 24.144531 49.878906 24.738281 49.878906 25.34375 C 49.878906 25.953125 49.941406 26.542969 50.066406 27.121094 Z M 50.597656 25.34375 C 50.597656 24.792969 50.652344 24.246094 50.769531 23.71875 C 50.816406 23.488281 50.769531 23.253906 50.632812 23.082031 C 50.5 22.910156 50.292969 22.816406 50.066406 22.816406 L 39.703125 22.816406 C 39.46875 22.816406 39.269531 22.914062 39.140625 23.085938 C 39.011719 23.257812 38.972656 23.496094 39.03125 23.730469 C 39.160156 24.214844 39.226562 24.71875 39.226562 25.222656 C 39.226562 25.808594 39.136719 26.386719 38.964844 26.945312 C 38.890625 27.175781 38.925781 27.414062 39.050781 27.59375 C 39.175781 27.765625 39.378906 27.867188 39.613281 27.867188 L 50.066406 27.867188 C 50.292969 27.867188 50.5 27.769531 50.632812 27.601562 C 50.769531 27.429688 50.816406 27.199219 50.769531 26.96875 C 50.652344 26.449219 50.597656 25.902344 50.597656 25.351562 Z M 50.597656 25.34375 "/>
<path style=" stroke:none;fill-rule:nonzero;fill:rgb(13.72549%,12.156863%,12.54902%);fill-opacity:1;" d="M 32.191406 18.226562 C 31.636719 18.308594 31.097656 18.460938 30.585938 18.683594 L 30.460938 17.8125 C 30.460938 17.777344 30.46875 17.746094 30.480469 17.730469 C 30.488281 17.714844 30.515625 17.691406 30.550781 17.683594 L 33.621094 17.238281 C 33.671875 17.238281 33.71875 17.28125 33.726562 17.335938 L 33.851562 18.207031 C 33.300781 18.140625 32.738281 18.144531 32.183594 18.226562 Z M 33.507812 16.519531 L 30.449219 16.964844 C 30.230469 16.996094 30.039062 17.113281 29.90625 17.292969 C 29.773438 17.472656 29.71875 17.695312 29.75 17.914062 L 29.875 18.804688 C 29.925781 19.171875 30.195312 19.417969 30.542969 19.417969 C 30.648438 19.417969 30.753906 19.394531 30.859375 19.351562 C 31.3125 19.152344 31.796875 19.015625 32.289062 18.945312 C 32.785156 18.875 33.285156 18.871094 33.777344 18.925781 C 34.035156 18.957031 34.257812 18.875 34.410156 18.695312 C 34.539062 18.546875 34.59375 18.335938 34.5625 18.121094 L 34.4375 17.230469 C 34.378906 16.785156 33.960938 16.453125 33.507812 16.519531 Z M 33.507812 16.519531 "/>
<path style=" stroke:none;fill-rule:nonzero;fill:rgb(13.72549%,12.156863%,12.54902%);fill-opacity:1;" d="M 58.285156 32.09375 C 58.285156 32.148438 58.253906 32.191406 58.207031 32.191406 L 58.203125 32.191406 C 54.664062 31.957031 51.894531 28.949219 51.894531 25.351562 C 51.894531 21.75 54.667969 18.738281 58.210938 18.511719 C 58.257812 18.511719 58.292969 18.554688 58.292969 18.605469 L 58.292969 32.097656 Z M 58.152344 17.78125 C 54.238281 18.039062 51.175781 21.359375 51.175781 25.34375 C 51.175781 29.328125 54.242188 32.648438 58.152344 32.910156 C 58.167969 32.910156 58.1875 32.910156 58.203125 32.910156 C 58.640625 32.910156 58.996094 32.539062 58.996094 32.089844 L 58.996094 18.597656 C 58.996094 18.125 58.605469 17.746094 58.148438 17.777344 Z M 58.152344 17.78125 "/>
<path style=" stroke:none;fill-rule:nonzero;fill:rgb(13.72549%,12.156863%,12.54902%);fill-opacity:1;" d="M 33.191406 26.78125 C 32.414062 26.78125 31.78125 26.140625 31.78125 25.351562 C 31.78125 24.558594 32.414062 23.917969 33.191406 23.917969 C 33.96875 23.917969 34.601562 24.558594 34.601562 25.351562 C 34.601562 26.140625 33.96875 26.78125 33.191406 26.78125 Z M 33.191406 23.1875 C 32.019531 23.1875 31.066406 24.15625 31.066406 25.34375 C 31.066406 26.535156 32.019531 27.5 33.191406 27.5 C 34.363281 27.5 35.320312 26.535156 35.320312 25.34375 C 35.320312 24.15625 34.367188 23.1875 33.191406 23.1875 Z M 33.191406 23.1875 "/>
<path style=" stroke:none;fill-rule:nonzero;fill:rgb(13.72549%,12.156863%,12.54902%);fill-opacity:1;" d="M 36.242188 7.761719 C 35.519531 7.761719 34.925781 7.164062 34.925781 6.425781 C 34.925781 5.6875 35.515625 5.09375 36.242188 5.09375 C 36.972656 5.09375 37.554688 5.691406 37.554688 6.425781 C 37.554688 7.160156 36.964844 7.761719 36.242188 7.761719 Z M 36.242188 4.371094 C 35.125 4.371094 34.214844 5.296875 34.214844 6.429688 C 34.214844 7.5625 35.121094 8.492188 36.242188 8.492188 C 37.367188 8.492188 38.269531 7.5625 38.269531 6.429688 C 38.269531 5.296875 37.359375 4.371094 36.242188 4.371094 Z M 36.242188 4.371094 "/>
<path style=" stroke:none;fill-rule:nonzero;fill:rgb(13.72549%,12.156863%,12.54902%);fill-opacity:1;" d="M 41.449219 6.992188 C 40.726562 6.992188 40.132812 6.394531 40.132812 5.660156 C 40.132812 4.925781 40.722656 4.328125 41.449219 4.328125 C 42.175781 4.328125 42.761719 4.925781 42.761719 5.660156 C 42.761719 6.394531 42.171875 6.992188 41.449219 6.992188 Z M 41.449219 3.601562 C 40.332031 3.601562 39.417969 4.527344 39.417969 5.660156 C 39.417969 6.792969 40.328125 7.722656 41.449219 7.722656 C 42.570312 7.722656 43.476562 6.800781 43.476562 5.660156 C 43.476562 4.523438 42.566406 3.601562 41.449219 3.601562 Z M 41.449219 3.601562 "/>
</g>
</svg>
