<?xml version="1.0" encoding="utf-8"?>
<!-- Generator: Adobe Illustrator 23.0.6, SVG Export Plug-In . SVG Version: 6.00 Build 0)  -->
<svg version="1.1" id="Layer_1" xmlns="http://www.w3.org/2000/svg" xmlns:xlink="http://www.w3.org/1999/xlink" x="0px" y="0px"
	 width="127.01px" height="127.01px" viewBox="0 0 127.01 127.01" enable-background="new 0 0 127.01 127.01" xml:space="preserve">
<path fill="#FFFFFF" stroke="#000000" stroke-width="0.5669" stroke-miterlimit="10" d="M120.16,38.35
	c-3.88-2.51-6.32-6.73-6.55-11.34c-0.37-7.36-6.26-13.25-13.62-13.62c-4.61-0.23-8.83-2.67-11.34-6.55
	c-4-6.19-12.04-8.35-18.61-4.98c-4.11,2.11-8.98,2.11-13.09,0h0c-6.56-3.36-14.6-1.21-18.6,4.98c-2.51,3.88-6.73,6.31-11.34,6.55
	c-7.36,0.37-13.25,6.25-13.62,13.62c-0.23,4.61-2.67,8.83-6.55,11.34c-6.19,4-8.35,12.04-4.98,18.6c2.11,4.11,2.11,8.98,0,13.09
	c-3.36,6.56-1.21,14.6,4.98,18.6c3.88,2.51,6.32,6.73,6.55,11.34c0.37,7.36,6.26,13.25,13.62,13.62c4.61,0.23,8.83,2.67,11.34,6.55
	v0c4,6.19,12.04,8.35,18.6,4.99h0c4.11-2.11,8.98-2.11,13.09,0c6.56,3.36,14.6,1.21,18.61-4.99v0c2.51-3.88,6.73-6.31,11.34-6.55
	c7.36-0.37,13.25-6.26,13.62-13.62c0.23-4.61,2.67-8.83,6.55-11.34c6.19-4,8.35-12.04,4.98-18.6c-2.1-4.11-2.1-8.98,0-13.09
	C128.51,50.4,126.35,42.36,120.16,38.35z"/>
</svg>
